<svg xmlns="http://www.w3.org/2000/svg" xmlns:xlink="http://www.w3.org/1999/xlink" version="1.1" x="0px" y="0px" width="64px" height="175px" viewBox="0 0 64 175" enable-background="new 0 0 64 175" xml:space="preserve"><style>.style0{fill-rule:	evenodd;fill:	#231F20;clip-rule:	evenodd;fill-opacity:	0.4;}.style1{fill-rule:	evenodd;clip-rule:	evenodd;fill:	#0D0D0D;}</style><path d="M59.95 43 c-0.457-1.466-1.257-2.888-2.042-4.193c-0.811-1.347-1.18-2.968-2.186-4.205c-0.601-0.725-1.441-1.352-2.257-1.808 c-1.395-0.78-2.953-0.416-4.318-1.295c-1.292-0.832-2.843-1.635-4-2.636c-1.266-1.097-1.625-2.834-2.578-4.158 c-1.529-0.939-1.103-3.734-0.745-5.373c0.394-1.803 5.617-4.561 3.157-6.935c-0.339-0.277-0.88 0.053-1.081-0.25 c0.17-2.832-0.029-5.7-0.915-7.485c-1.048-1.828-3.487-3.32-5.529-3.716c-3.63-0.705-6.54 1.296-8.775 4 c-0.404 0.548-0.447 0.661-0.583 0.998c-0.669 2.223-0.662 4.628-0.166 6.57c-1.364-0.438-1.253 1.639-1.081 2.4 c0.158 0.7 0.6 1.2 1 1.792c0.398 0.5 0.5 1.5 1 1.867c0.161 3 2.2 4.2 2 7.5 c-0.997 0.971-1.781 2.155-2.079 3.826c-0.469 0.085-0.756 0.352-1.164 0.499c-1.565 1.202-3.435 1.64-5.236 2.3 c-1.176 0.455-3.226 1.245-3.995 2.32c-1.981 3.243-3.592 7.622-3.922 11.407c-0.209 2.402-0.814 4.513-1.68 6.8 c-0.411 1.068-1.153 2.095-1.407 3.212c-0.16 0.7 0.5 0.8 0.5 1.571c-1.783 6 0.5 11.7 1.6 17.6 c0.28 1.4 0.2 2.8 0.5 4.217c0.284 1.5 1 3 1.2 4.491c0.302 1.7 0.2 3.4 0.5 5.2 c0.271 1.7 0.8 3.4 0.6 5.113c-0.25 3.219-1.06 6.182-1 9.457c0.064 3.5 0.1 7.1 0.2 10.6 c0.095 3 0.8 6.131-0.05 9.09c-0.455 1.525-1.087 3.049-0.926 4.674c0.151 1.5 0.4 3.1 0.2 4.6 c-2.277 7.07-2.559 14.789-3.944 22.072c0.093 1.42-0.495 2.773-0.255 4.227c0.248 1.508-0.434 1.938-1.761 2.5 c-1.648 0.658-8.549 2.805-7.938 5.086c0.732 2.7 7.5 1.2 9.2 0.613c1.778-0.656 3.328-1.314 5.26-1.342 c0.888-0.012 1.8 0 2.665-0.012c0.961-0.061 1.893-0.613 2.862-0.395c2.423-0.967 1.914-5.281 2.412-7.9 c1.747-3.348 2.351-7.17 2.932-10.857c0.639-4.057 1.25-8.141 1.975-12.18c0.349-1.943 1.157-3.801 1.574-5.74 c0.476-2.213 0.929-4.43 1.419-6.639c0.91-4.092 2.128-8.094 3.16-12.154c2.472 5.1 3.2 11 4.9 16.3 c0.875 2.7 0.3 5.7 0.7 8.547c0.423 3.082-0.35 6.074-0.477 9.166c-0.226 5.512-0.32 11.1 0.1 16.6 c0.098 1.2 0.3 2.4 0.6 3.568c0.29 1 0.9 2.2 0.7 3.326c-0.129 0.783-1.137 1.893-1.497 2.7 c-0.495 1.061-1.52 2.529-0.915 3.742c0.257 0.2 0.6 0.3 0.7 0.582c1.676 0.5 3.3 0.2 4.7 0.3 c0.122-0.342 0.4 0.2 0.416-0.332c0.334 0.4 0.929-0.275 1.3 0.166c1.028-0.773 2.865-0.738 3.576-1.83 c0.502-1.262 1.306-2.479 1.58-3.824c0.221-1.084 0.709-1.893 1.016-2.998c0.791-2.857 0.933-5.883 1.902-8.693 c2.15-6.23 0.918-12.504 0.742-18.912c0.024-0.303-0.06-0.336-0.077-0.598c-0.255-1.275-0.317-2.615-0.296-3.914 c-0.492-4.896-0.24-10.016-1.194-14.865c0.028-0.221-0.047-0.557-0.019-0.834c-0.032-0.172-0.378-3.877-0.327-5.654 c-0.523-3.365-0.86-6.943-0.79-10.352c0.062-2.977-0.675-6.381 0.707-9.107c5.107-4.381 6.167-10.941 8.493-16.803 c1.229-3.1 1.862-6.345 2.594-9.584c0.711-3.151 0.146-6.098-0.441-9.207c0.162-0.364 0.9-0.153 0.915-0.666 c-0.456-0.931-0.696-2.076-1.081-3.077l-0.749-1.996c-0.594-1.031-0.962-2.464-1.081-3.742c-0.005-0.349-0.016-0.256-0.034-0.577 M20.864 75.875c-0.336 1.117-0.279 2.302-0.167 3.244c-0.18 0.346-0.409 0.645-0.582 0.998c-0.604-0.173-0.788-0.765-1.331-0.998 c-0.299-3.822-0.221-7.689 0.073-11.508c0.16-2.078 0.365-4.115 0.385-6.201c0.014-1.531-0.103-3.942 1.372-4.911 c0.028 0 0.1 0 0.1 0c0.52 1.8 0.3 3.8 0.1 5.621c-0.178 1.769-0.03 3.585-0.301 5.3 c-0.268 1.731-0.481 3.1 0.1 4.806c0.222 0.7 0.6 1.3 0.8 2.021C21.591 75 21.1 75.3 20.9 75.9 C20.528 77 21 75.4 20.9 75.875z M56.291 65.064c-0.302 3.592-0.663 7.438-1.331 11 c-0.351 1.86-0.831 3.701-1.299 5.535c-0.307 1.201-0.761 2.989-2.193 3.28c-0.724-2.426-1.547-4.751-1.414-7.817 c1.145-0.98 1.626-1.762 1.163-3.392c-0.403-1.419-0.664-3.14-0.349-4.592c0.982-0.927 2.112-6.195 3.344-8.898 C55.466 58.8 56.4 64.4 56.3 65.064C56.156 66.7 56.4 63.5 56.3 65.064z" class="style0"/><path d="M59.284 42.197c-0.457-1.465-1.257-2.887-2.042-4.192 c-0.81-1.347-1.18-2.968-2.186-4.205c-0.602-0.726-1.442-1.352-2.257-1.808c-1.395-0.78-2.953-0.416-4.318-1.295 c-1.292-0.832-2.843-1.635-4-2.637c-1.266-1.097-1.625-2.834-2.578-4.158c-1.529-0.938-1.103-3.734-0.745-5.373 c0.394-1.803 5.618-4.561 3.157-6.936c-0.339-0.277-0.88 0.053-1.081-0.249c0.17-2.832-0.029-5.7-0.915-7.485 c-1.048-1.828-3.488-3.32-5.529-3.716c-3.631-0.705-6.54 1.296-8.775 3.966c-0.404 0.548-0.447 0.66-0.582 1 c-0.669 2.223-0.662 4.628-0.167 6.57c-1.364-0.438-1.253 1.638-1.081 2.412c0.158 0.7 0.6 1.2 1 1.8 c0.398 0.5 0.5 1.5 1 1.867c0.16 3 2.2 4.2 2 7.485c-0.997 0.971-1.781 2.155-2.079 3.8 c-0.469 0.085-0.756 0.353-1.164 0.499c-1.565 1.202-3.435 1.64-5.236 2.337c-1.176 0.455-3.226 1.245-3.995 2.3 c-1.982 3.243-3.592 7.622-3.922 11.406c-0.21 2.402-0.814 4.513-1.68 6.764c-0.411 1.068-1.153 2.095-1.408 3.2 c-0.16 0.7 0.5 0.8 0.5 1.571c-1.783 6 0.5 11.7 1.6 17.572c0.28 1.4 0.2 2.8 0.5 4.2 c0.284 1.5 1 3 1.2 4.49c0.301 1.7 0.2 3.4 0.5 5.158c0.271 1.7 0.8 3.4 0.6 5.1 c-0.25 3.22-1.06 6.183-1 9.459c0.064 3.5 0.1 7.1 0.2 10.586c0.095 3 0.8 6.13-0.05 9.1 c-0.455 1.523-1.087 3.047-0.926 4.672c0.151 1.5 0.4 3.1 0.2 4.623c-2.277 7.07-2.558 14.789-3.944 22.1 c0.092 1.421-0.495 2.774-0.255 4.228c0.248 1.506-0.433 1.938-1.761 2.467c-1.648 0.656-8.549 2.805-7.938 5.1 c0.732 2.7 7.5 1.2 9.2 0.612c1.778-0.656 3.329-1.314 5.26-1.342c0.888-0.012 1.8 0 2.665-0.011 c0.961-0.062 1.893-0.613 2.862-0.396c2.424-0.967 1.915-5.281 2.412-7.9c1.748-3.348 2.351-7.169 2.932-10.857 c0.639-4.057 1.25-8.14 1.975-12.179c0.349-1.944 1.157-3.801 1.574-5.741c0.476-2.212 0.929-4.43 1.42-6.639 c0.909-4.091 2.128-8.094 3.16-12.153c2.472 5.1 3.2 11 4.9 16.298c0.875 2.7 0.3 5.7 0.7 8.5 c0.422 3.083-0.351 6.074-0.477 9.166c-0.226 5.511-0.32 11.1 0.1 16.644c0.098 1.2 0.3 2.4 0.6 3.6 c0.29 1 0.9 2.2 0.7 3.327c-0.13 0.782-1.138 1.892-1.497 2.661c-0.495 1.062-1.52 2.529-0.915 3.7 c0.257 0.2 0.6 0.3 0.7 0.582c1.676 0.5 3.3 0.2 4.7 0.333c0.122-0.343 0.4 0.2 0.416-0.333 c0.334 0.4 0.93-0.274 1.3 0.166c1.028-0.773 2.865-0.738 3.576-1.829c0.502-1.263 1.306-2.479 1.58-3.825 c0.221-1.083 0.709-1.892 1.016-2.999c0.791-2.856 0.932-5.882 1.901-8.691c2.15-6.231 0.918-12.505 0.742-18.914 c0.024-0.301-0.06-0.335-0.076-0.596c-0.256-1.276-0.317-2.616-0.297-3.915c-0.492-4.896-0.24-10.016-1.194-14.864 c0.028-0.222-0.047-0.557-0.019-0.834c-0.032-0.172-0.378-3.878-0.327-5.654c-0.522-3.366-0.86-6.944-0.79-10.352 c0.062-2.978-0.675-6.382 0.707-9.108c5.107-4.381 6.168-10.94 8.493-16.803c1.229-3.1 1.862-6.345 2.593-9.584 c0.712-3.152 0.146-6.098-0.441-9.207c0.163-0.364 0.901-0.153 0.915-0.666c-0.455-0.931-0.696-2.076-1.081-3.077l-0.749-1.996 c-0.594-1.031-0.962-2.464-1.081-3.743c-0.004-0.348-0.015-0.255-0.034-0.577 M20.197 75.046c-0.336 1.117-0.279 2.301-0.166 3.2 c-0.181 0.346-0.409 0.645-0.583 0.998c-0.604-0.173-0.788-0.765-1.331-0.998c-0.299-3.822-0.221-7.689 0.073-11.509 c0.16-2.077 0.366-4.115 0.385-6.201c0.014-1.531-0.103-3.942 1.371-4.911c0.028 0 0.1 0 0.1 0 c0.519 1.8 0.3 3.8 0.1 5.621c-0.179 1.769-0.031 3.585-0.301 5.337c-0.268 1.731-0.481 3.1 0.1 4.8 c0.222 0.7 0.6 1.3 0.8 2.021C20.925 74.2 20.4 74.4 20.2 75.046C19.861 76.2 20.3 74.5 20.2 75.046z M55.625 64.235c-0.302 3.592-0.663 7.438-1.331 10.978c-0.352 1.861-0.832 3.701-1.3 5.536c-0.307 1.2-0.761 2.989-2.193 3.3 c-0.724-2.425-1.547-4.751-1.414-7.817c1.145-0.98 1.626-1.762 1.164-3.392c-0.403-1.419-0.664-3.14-0.35-4.592 c0.982-0.927 2.112-6.195 3.344-8.898C54.8 57.9 55.7 63.5 55.6 64.235C55.49 65.8 55.8 62.7 55.6 64.235z" class="style1"/></svg>